v -1.0 -0.5 -1.0
v -1.0 -0.5 1.0
v 1.0 -0.5 -1.0
v 1.0 -0.5 1.0
v -1.0 0.5 -1.0
v -1.0 0.5 1.0
v 1.0 0.5 -1.0
v 1.0 0.5 1.0
vt 0.0 0.0
vt 0.0 0.5
vt 0.0 1.0
vt 0.5 0.0
vt 0.5 0.5
vt 1.0 0.0
vt 1.0 0.5
vt 1.0 1.0
vn 0 -1 0
vn 0 1 0
vn 0 0 -1
vn 0 0 1
vn -1 0 0
vn 1 0 0
f 4/7/1 2/5/1 1/4/1
f 4/7/1 1/4/1 3/6/1
f 5/1/2 6/2/2 8/5/2
f 5/1/2 8/5/2 7/4/2
f 2/3/4 4/8/4 8/7/4
f 2/3/4 8/7/4 6/2/4
f 4/3/6 3/8/6 7/7/6
f 4/3/6 7/7/6 8/2/6
f 3/3/3 1/8/3 5/7/3
f 3/3/3 5/7/3 7/2/3
f 1/3/5 2/8/5 6/7/5
f 1/3/5 6/7/5 5/2/5